<?xml version="1.0" encoding="UTF-8"?>
<!DOCTYPE svg PUBLIC "-//W3C//DTD SVG 1.1//EN" "http://www.w3.org/Graphics/SVG/1.1/DTD/svg11.dtd">
<svg width="160mm" height="90mm" viewBox="0 0 16000 9000" version="1.1" xmlns="http://www.w3.org/2000/svg" xmlns:xlink="http://www.w3.org/1999/xlink" stroke-width="28.222" stroke-linejoin="round" xml:space="preserve">
 <path fill="rgb(255,255,255)" stroke="none" d="M 8000,8999 L 0,8999 0,19 15999,19 15999,8999 8000,8999 Z"/>
 <path fill="none" stroke="rgb(179,179,179)" stroke-linejoin="round" d="M 7814,6506 L 1920,6506 1920,199 13707,199 13707,6506 7814,6506 Z"/>
 <path fill="none" stroke="rgb(179,179,179)" stroke-linejoin="round" d="M 13707,6505 L 1920,6505"/>
 <path fill="none" stroke="rgb(179,179,179)" stroke-linejoin="round" d="M 13707,5873 L 1920,5873"/>
 <path fill="none" stroke="rgb(179,179,179)" stroke-linejoin="round" d="M 13707,5242 L 1920,5242"/>
 <path fill="none" stroke="rgb(179,179,179)" stroke-linejoin="round" d="M 13707,4612 L 1920,4612"/>
 <path fill="none" stroke="rgb(179,179,179)" stroke-linejoin="round" d="M 13707,3981 L 1920,3981"/>
 <path fill="none" stroke="rgb(179,179,179)" stroke-linejoin="round" d="M 13707,3351 L 1920,3351"/>
 <path fill="none" stroke="rgb(179,179,179)" stroke-linejoin="round" d="M 13707,2720 L 1920,2720"/>
 <path fill="none" stroke="rgb(179,179,179)" stroke-linejoin="round" d="M 13707,2089 L 1920,2089"/>
 <path fill="none" stroke="rgb(179,179,179)" stroke-linejoin="round" d="M 13707,1459 L 1920,1459"/>
 <path fill="none" stroke="rgb(179,179,179)" stroke-linejoin="round" d="M 13707,828 L 1920,828"/>
 <path fill="none" stroke="rgb(179,179,179)" stroke-linejoin="round" d="M 13707,198 L 1920,198"/>
 <path fill="none" stroke="rgb(179,179,179)" stroke-linejoin="round" d="M 1920,6654 L 1920,6505"/>
 <path fill="none" stroke="rgb(179,179,179)" stroke-linejoin="round" d="M 1920,6654 L 1920,6505"/>
 <path fill="none" stroke="rgb(179,179,179)" stroke-linejoin="round" d="M 3098,6654 L 3098,6505"/>
 <path fill="none" stroke="rgb(179,179,179)" stroke-linejoin="round" d="M 3098,6654 L 3098,6505"/>
 <path fill="none" stroke="rgb(179,179,179)" stroke-linejoin="round" d="M 4277,6654 L 4277,6505"/>
 <path fill="none" stroke="rgb(179,179,179)" stroke-linejoin="round" d="M 4277,6654 L 4277,6505"/>
 <path fill="none" stroke="rgb(179,179,179)" stroke-linejoin="round" d="M 5456,6654 L 5456,6505"/>
 <path fill="none" stroke="rgb(179,179,179)" stroke-linejoin="round" d="M 5456,6654 L 5456,6505"/>
 <path fill="none" stroke="rgb(179,179,179)" stroke-linejoin="round" d="M 6635,6654 L 6635,6505"/>
 <path fill="none" stroke="rgb(179,179,179)" stroke-linejoin="round" d="M 6635,6654 L 6635,6505"/>
 <path fill="none" stroke="rgb(179,179,179)" stroke-linejoin="round" d="M 7814,6654 L 7814,6505"/>
 <path fill="none" stroke="rgb(179,179,179)" stroke-linejoin="round" d="M 7814,6654 L 7814,6505"/>
 <path fill="none" stroke="rgb(179,179,179)" stroke-linejoin="round" d="M 8991,6654 L 8991,6505"/>
 <path fill="none" stroke="rgb(179,179,179)" stroke-linejoin="round" d="M 8991,6654 L 8991,6505"/>
 <path fill="none" stroke="rgb(179,179,179)" stroke-linejoin="round" d="M 10170,6654 L 10170,6505"/>
 <path fill="none" stroke="rgb(179,179,179)" stroke-linejoin="round" d="M 10170,6654 L 10170,6505"/>
 <path fill="none" stroke="rgb(179,179,179)" stroke-linejoin="round" d="M 11349,6654 L 11349,6505"/>
 <path fill="none" stroke="rgb(179,179,179)" stroke-linejoin="round" d="M 11349,6654 L 11349,6505"/>
 <path fill="none" stroke="rgb(179,179,179)" stroke-linejoin="round" d="M 12528,6654 L 12528,6505"/>
 <path fill="none" stroke="rgb(179,179,179)" stroke-linejoin="round" d="M 12528,6654 L 12528,6505"/>
 <path fill="none" stroke="rgb(179,179,179)" stroke-linejoin="round" d="M 13707,6654 L 13707,6505"/>
 <path fill="none" stroke="rgb(179,179,179)" stroke-linejoin="round" d="M 13707,6654 L 13707,6505"/>
 <path fill="none" stroke="rgb(179,179,179)" stroke-linejoin="round" d="M 1920,6505 L 13707,6505"/>
 <path fill="none" stroke="rgb(179,179,179)" stroke-linejoin="round" d="M 1770,6505 L 1920,6505"/>
 <path fill="none" stroke="rgb(179,179,179)" stroke-linejoin="round" d="M 1770,6505 L 1920,6505"/>
 <path fill="none" stroke="rgb(179,179,179)" stroke-linejoin="round" d="M 1770,5873 L 1920,5873"/>
 <path fill="none" stroke="rgb(179,179,179)" stroke-linejoin="round" d="M 1770,5873 L 1920,5873"/>
 <path fill="none" stroke="rgb(179,179,179)" stroke-linejoin="round" d="M 1770,5242 L 1920,5242"/>
 <path fill="none" stroke="rgb(179,179,179)" stroke-linejoin="round" d="M 1770,5242 L 1920,5242"/>
 <path fill="none" stroke="rgb(179,179,179)" stroke-linejoin="round" d="M 1770,4612 L 1920,4612"/>
 <path fill="none" stroke="rgb(179,179,179)" stroke-linejoin="round" d="M 1770,4612 L 1920,4612"/>
 <path fill="none" stroke="rgb(179,179,179)" stroke-linejoin="round" d="M 1770,3981 L 1920,3981"/>
 <path fill="none" stroke="rgb(179,179,179)" stroke-linejoin="round" d="M 1770,3981 L 1920,3981"/>
 <path fill="none" stroke="rgb(179,179,179)" stroke-linejoin="round" d="M 1770,3351 L 1920,3351"/>
 <path fill="none" stroke="rgb(179,179,179)" stroke-linejoin="round" d="M 1770,3351 L 1920,3351"/>
 <path fill="none" stroke="rgb(179,179,179)" stroke-linejoin="round" d="M 1770,2720 L 1920,2720"/>
 <path fill="none" stroke="rgb(179,179,179)" stroke-linejoin="round" d="M 1770,2720 L 1920,2720"/>
 <path fill="none" stroke="rgb(179,179,179)" stroke-linejoin="round" d="M 1770,2089 L 1920,2089"/>
 <path fill="none" stroke="rgb(179,179,179)" stroke-linejoin="round" d="M 1770,2089 L 1920,2089"/>
 <path fill="none" stroke="rgb(179,179,179)" stroke-linejoin="round" d="M 1770,1459 L 1920,1459"/>
 <path fill="none" stroke="rgb(179,179,179)" stroke-linejoin="round" d="M 1770,1459 L 1920,1459"/>
 <path fill="none" stroke="rgb(179,179,179)" stroke-linejoin="round" d="M 1770,828 L 1920,828"/>
 <path fill="none" stroke="rgb(179,179,179)" stroke-linejoin="round" d="M 1770,828 L 1920,828"/>
 <path fill="none" stroke="rgb(179,179,179)" stroke-linejoin="round" d="M 1770,198 L 1920,198"/>
 <path fill="none" stroke="rgb(179,179,179)" stroke-linejoin="round" d="M 1770,198 L 1920,198"/>
 <path fill="none" stroke="rgb(179,179,179)" stroke-linejoin="round" d="M 1920,6505 L 1920,198"/>
 <path fill="rgb(0,69,134)" stroke="none" d="M 12626,6505 L 12822,6505 12822,3849 12626,3849 12626,6505 Z"/>
 <path fill="rgb(0,69,134)" stroke="none" d="M 11447,6505 L 11644,6505 11644,3483 11447,3483 11447,6505 Z"/>
 <path fill="rgb(0,69,134)" stroke="none" d="M 10268,6505 L 10465,6505 10465,5095 10268,5095 10268,6505 Z"/>
 <path fill="rgb(0,69,134)" stroke="none" d="M 9090,6505 L 9286,6505 9286,6266 9090,6266 9090,6505 Z"/>
 <path fill="rgb(0,69,134)" stroke="none" d="M 7912,6505 L 8107,6505 8107,6385 7912,6385 7912,6505 Z"/>
 <path fill="rgb(0,69,134)" stroke="none" d="M 6733,6505 L 6929,6505 6929,5405 6733,5405 6733,6505 Z"/>
 <path fill="rgb(0,69,134)" stroke="none" d="M 5554,6505 L 5751,6505 5751,1433 5554,1433 5554,6505 Z"/>
 <path fill="rgb(0,69,134)" stroke="none" d="M 4375,6505 L 4572,6505 4572,207 4375,207 4375,6505 Z"/>
 <path fill="rgb(0,69,134)" stroke="none" d="M 3197,6505 L 3393,6505 3393,3786 3197,3786 3197,6505 Z"/>
 <path fill="rgb(0,69,134)" stroke="none" d="M 2018,6505 L 2214,6505 2214,1771 2018,1771 2018,6505 Z"/>
 <path fill="rgb(255,66,14)" stroke="none" d="M 12822,6505 L 13019,6505 13019,4255 12822,4255 12822,6505 Z"/>
 <path fill="rgb(255,66,14)" stroke="none" d="M 11644,6505 L 11840,6505 11840,3181 11644,3181 11644,6505 Z"/>
 <path fill="rgb(255,66,14)" stroke="none" d="M 10465,6505 L 10661,6505 10661,4894 10465,4894 10465,6505 Z"/>
 <path fill="rgb(255,66,14)" stroke="none" d="M 9286,6505 L 9482,6505 9482,6307 9286,6307 9286,6505 Z"/>
 <path fill="rgb(255,66,14)" stroke="none" d="M 8107,6505 L 8304,6505 8304,6429 8107,6429 8107,6505 Z"/>
 <path fill="rgb(255,66,14)" stroke="none" d="M 6929,6505 L 7126,6505 7126,5412 6929,5412 6929,6505 Z"/>
 <path fill="rgb(255,66,14)" stroke="none" d="M 5751,6505 L 5947,6505 5947,1459 5751,1459 5751,6505 Z"/>
 <path fill="rgb(255,66,14)" stroke="none" d="M 4572,6505 L 4768,6505 4768,225 4572,225 4572,6505 Z"/>
 <path fill="rgb(255,66,14)" stroke="none" d="M 3393,6505 L 3589,6505 3589,4038 3393,4038 3393,6505 Z"/>
 <path fill="rgb(255,66,14)" stroke="none" d="M 2214,6505 L 2411,6505 2411,1986 2214,1986 2214,6505 Z"/>
 <path fill="rgb(255,211,32)" stroke="none" d="M 13019,6505 L 13215,6505 13215,4113 13019,4113 13019,6505 Z"/>
 <path fill="rgb(255,211,32)" stroke="none" d="M 11840,6505 L 12037,6505 12037,3096 11840,3096 11840,6505 Z"/>
 <path fill="rgb(255,211,32)" stroke="none" d="M 10661,6505 L 10858,6505 10858,4875 10661,4875 10661,6505 Z"/>
 <path fill="rgb(255,211,32)" stroke="none" d="M 9482,6505 L 9679,6505 9679,6231 9482,6231 9482,6505 Z"/>
 <path fill="rgb(255,211,32)" stroke="none" d="M 8304,6505 L 8500,6505 8500,6325 8304,6325 8304,6505 Z"/>
 <path fill="rgb(255,211,32)" stroke="none" d="M 7126,6505 L 7322,6505 7322,5459 7126,5459 7126,6505 Z"/>
 <path fill="rgb(255,211,32)" stroke="none" d="M 5947,6505 L 6144,6505 6144,1194 5947,1194 5947,6505 Z"/>
 <path fill="rgb(255,211,32)" stroke="none" d="M 4768,6505 L 4965,6505 4965,234 4768,234 4768,6505 Z"/>
 <path fill="rgb(255,211,32)" stroke="none" d="M 3589,6505 L 3786,6505 3786,3943 3589,3943 3589,6505 Z"/>
 <path fill="rgb(255,211,32)" stroke="none" d="M 2411,6505 L 2607,6505 2607,2202 2411,2202 2411,6505 Z"/>
 <path fill="rgb(87,157,28)" stroke="none" d="M 13215,6505 L 13412,6505 13412,1927 13215,1927 13215,6505 Z"/>
 <path fill="rgb(87,157,28)" stroke="none" d="M 12037,6505 L 12233,6505 12233,3334 12037,3334 12037,6505 Z"/>
 <path fill="rgb(87,157,28)" stroke="none" d="M 10858,6505 L 11054,6505 11054,5029 10858,5029 10858,6505 Z"/>
 <path fill="rgb(87,157,28)" stroke="none" d="M 9679,6505 L 9875,6505 9875,6202 9679,6202 9679,6505 Z"/>
 <path fill="rgb(87,157,28)" stroke="none" d="M 8500,6505 L 8697,6505 8697,6298 8500,6298 8500,6505 Z"/>
 <path fill="rgb(87,157,28)" stroke="none" d="M 7322,6505 L 7519,6505 7519,5317 7322,5317 7322,6505 Z"/>
 <path fill="rgb(87,157,28)" stroke="none" d="M 6144,6505 L 6340,6505 6340,1103 6144,1103 6144,6505 Z"/>
 <path fill="rgb(87,157,28)" stroke="none" d="M 4965,6505 L 5161,6505 5161,218 4965,218 4965,6505 Z"/>
 <path fill="rgb(87,157,28)" stroke="none" d="M 3786,6505 L 3982,6505 3982,4274 3786,4274 3786,6505 Z"/>
 <path fill="rgb(87,157,28)" stroke="none" d="M 2607,6505 L 2804,6505 2804,2180 2607,2180 2607,6505 Z"/>
 <path fill="rgb(126,0,33)" stroke="none" d="M 13412,6505 L 13608,6505 13608,2048 13412,2048 13412,6505 Z"/>
 <path fill="rgb(126,0,33)" stroke="none" d="M 12233,6505 L 12429,6505 12429,3368 12233,3368 12233,6505 Z"/>
 <path fill="rgb(126,0,33)" stroke="none" d="M 11054,6505 L 11251,6505 11251,5005 11054,5005 11054,6505 Z"/>
 <path fill="rgb(126,0,33)" stroke="none" d="M 9875,6505 L 10072,6505 10072,6283 9875,6283 9875,6505 Z"/>
 <path fill="rgb(126,0,33)" stroke="none" d="M 8697,6505 L 8893,6505 8893,6310 8697,6310 8697,6505 Z"/>
 <path fill="rgb(126,0,33)" stroke="none" d="M 7519,6505 L 7715,6505 7715,5385 7519,5385 7519,6505 Z"/>
 <path fill="rgb(126,0,33)" stroke="none" d="M 6340,6505 L 6536,6505 6536,1219 6340,1219 6340,6505 Z"/>
 <path fill="rgb(126,0,33)" stroke="none" d="M 5161,6505 L 5358,6505 5358,279 5161,279 5161,6505 Z"/>
 <path fill="rgb(126,0,33)" stroke="none" d="M 3982,6505 L 4179,6505 4179,4680 3982,4680 3982,6505 Z"/>
 <path fill="rgb(126,0,33)" stroke="none" d="M 2804,6505 L 3000,6505 3000,2594 2804,2594 2804,6505 Z"/>
 <text class="TextShape" transform="rotate(-44.9 2068 7501)"><tspan class="TextParagraph" font-family="Liberation Sans, sans-serif" font-size="353px" font-weight="400"><tspan class="TextPosition" x="2068" y="7501"><tspan fill="rgb(0,0,0)" stroke="none">pmid</tspan></tspan></tspan></text>
 <text class="TextShape" transform="rotate(-44.9 3117 7632)"><tspan class="TextParagraph" font-family="Liberation Sans, sans-serif" font-size="353px" font-weight="400"><tspan class="TextPosition" x="3117" y="7632"><tspan fill="rgb(0,0,0)" stroke="none">pmcid</tspan></tspan></tspan></text>
 <text class="TextShape" transform="rotate(-44.9 4632 7295)"><tspan class="TextParagraph" font-family="Liberation Sans, sans-serif" font-size="353px" font-weight="400"><tspan class="TextPosition" x="4632" y="7295"><tspan fill="rgb(0,0,0)" stroke="none">doi</tspan></tspan></tspan></text>
 <text class="TextShape" transform="rotate(-44.9 5006 8099)"><tspan class="TextParagraph" font-family="Liberation Sans, sans-serif" font-size="353px" font-weight="400"><tspan class="TextPosition" x="5006" y="8099"><tspan fill="rgb(0,0,0)" stroke="none">homepage</tspan></tspan></tspan></text>
 <text class="TextShape" transform="rotate(-44.9 6933 7351)"><tspan class="TextParagraph" font-family="Liberation Sans, sans-serif" font-size="353px" font-weight="400"><tspan class="TextPosition" x="6933" y="7351"><tspan fill="rgb(0,0,0)" stroke="none">link</tspan></tspan></tspan></text>
 <text class="TextShape" transform="rotate(-44.9 7475 7987)"><tspan class="TextParagraph" font-family="Liberation Sans, sans-serif" font-size="353px" font-weight="400"><tspan class="TextPosition" x="7475" y="7987"><tspan fill="rgb(0,0,0)" stroke="none">download</tspan></tspan></tspan></text>
 <text class="TextShape" transform="rotate(-44.9 8075 8564)"><tspan class="TextParagraph" font-family="Liberation Sans, sans-serif" font-size="353px" font-weight="400"><tspan class="TextPosition" x="8075" y="8564"><tspan fill="rgb(0,0,0)" stroke="none">documentation</tspan></tspan></tspan></text>
 <text class="TextShape" transform="rotate(-44.9 10076 7744)"><tspan class="TextParagraph" font-family="Liberation Sans, sans-serif" font-size="353px" font-weight="400"><tspan class="TextPosition" x="10076" y="7744"><tspan fill="rgb(0,0,0)" stroke="none">license</tspan></tspan></tspan></text>
 <text class="TextShape" transform="rotate(-44.9 11050 7949)"><tspan class="TextParagraph" font-family="Liberation Sans, sans-serif" font-size="353px" font-weight="400"><tspan class="TextPosition" x="11050" y="7949"><tspan fill="rgb(0,0,0)" stroke="none">language</tspan></tspan></tspan></text>
 <text class="TextShape" transform="rotate(-44.9 12601 7577)"><tspan class="TextParagraph" font-family="Liberation Sans, sans-serif" font-size="353px" font-weight="400"><tspan class="TextPosition" x="12601" y="7577"><tspan fill="rgb(0,0,0)" stroke="none">credit</tspan></tspan></tspan></text>
 <text class="TextShape"><tspan class="TextParagraph" font-family="Liberation Sans, sans-serif" font-size="352px" font-weight="400"><tspan class="TextPosition" x="691" y="6625"><tspan fill="rgb(0,0,0)" stroke="none">0,00%</tspan></tspan></tspan></text>
 <text class="TextShape"><tspan class="TextParagraph" font-family="Liberation Sans, sans-serif" font-size="352px" font-weight="400"><tspan class="TextPosition" x="506" y="5993"><tspan fill="rgb(0,0,0)" stroke="none">10,00%</tspan></tspan></tspan></text>
 <text class="TextShape"><tspan class="TextParagraph" font-family="Liberation Sans, sans-serif" font-size="352px" font-weight="400"><tspan class="TextPosition" x="506" y="5363"><tspan fill="rgb(0,0,0)" stroke="none">20,00%</tspan></tspan></tspan></text>
 <text class="TextShape"><tspan class="TextParagraph" font-family="Liberation Sans, sans-serif" font-size="352px" font-weight="400"><tspan class="TextPosition" x="506" y="4732"><tspan fill="rgb(0,0,0)" stroke="none">30,00%</tspan></tspan></tspan></text>
 <text class="TextShape"><tspan class="TextParagraph" font-family="Liberation Sans, sans-serif" font-size="352px" font-weight="400"><tspan class="TextPosition" x="506" y="4101"><tspan fill="rgb(0,0,0)" stroke="none">40,00%</tspan></tspan></tspan></text>
 <text class="TextShape"><tspan class="TextParagraph" font-family="Liberation Sans, sans-serif" font-size="352px" font-weight="400"><tspan class="TextPosition" x="506" y="3471"><tspan fill="rgb(0,0,0)" stroke="none">50,00%</tspan></tspan></tspan></text>
 <text class="TextShape"><tspan class="TextParagraph" font-family="Liberation Sans, sans-serif" font-size="352px" font-weight="400"><tspan class="TextPosition" x="506" y="2840"><tspan fill="rgb(0,0,0)" stroke="none">60,00%</tspan></tspan></tspan></text>
 <text class="TextShape"><tspan class="TextParagraph" font-family="Liberation Sans, sans-serif" font-size="352px" font-weight="400"><tspan class="TextPosition" x="506" y="2210"><tspan fill="rgb(0,0,0)" stroke="none">70,00%</tspan></tspan></tspan></text>
 <text class="TextShape"><tspan class="TextParagraph" font-family="Liberation Sans, sans-serif" font-size="352px" font-weight="400"><tspan class="TextPosition" x="506" y="1579"><tspan fill="rgb(0,0,0)" stroke="none">80,00%</tspan></tspan></tspan></text>
 <text class="TextShape"><tspan class="TextParagraph" font-family="Liberation Sans, sans-serif" font-size="352px" font-weight="400"><tspan class="TextPosition" x="506" y="948"><tspan fill="rgb(0,0,0)" stroke="none">90,00%</tspan></tspan></tspan></text>
 <text class="TextShape"><tspan class="TextParagraph" font-family="Liberation Sans, sans-serif" font-size="352px" font-weight="400"><tspan class="TextPosition" x="321" y="318"><tspan fill="rgb(0,0,0)" stroke="none">100,00%</tspan></tspan></tspan></text>
 <path fill="rgb(0,69,134)" stroke="none" d="M 14249,3620 L 14143,3620 14143,3409 14354,3409 14354,3620 14249,3620 Z"/>
 <path fill="rgb(255,66,14)" stroke="none" d="M 14249,4117 L 14143,4117 14143,3906 14354,3906 14354,4117 14249,4117 Z"/>
 <path fill="rgb(255,211,32)" stroke="none" d="M 14249,4614 L 14143,4614 14143,4403 14354,4403 14354,4614 14249,4614 Z"/>
 <path fill="rgb(87,157,28)" stroke="none" d="M 14249,5111 L 14143,5111 14143,4900 14354,4900 14354,5111 14249,5111 Z"/>
 <path fill="rgb(126,0,33)" stroke="none" d="M 14249,5608 L 14143,5608 14143,5397 14354,5397 14354,5608 14249,5608 Z"/>
 <text class="TextShape"><tspan class="TextParagraph" font-family="Liberation Sans, sans-serif" font-size="352px" font-weight="400"><tspan class="TextPosition" x="14454" y="3634"><tspan fill="rgb(0,0,0)" stroke="none">2019-05</tspan></tspan></tspan></text>
 <text class="TextShape"><tspan class="TextParagraph" font-family="Liberation Sans, sans-serif" font-size="352px" font-weight="400"><tspan class="TextPosition" x="14454" y="4131"><tspan fill="rgb(0,0,0)" stroke="none">2019-06</tspan></tspan></tspan></text>
 <text class="TextShape"><tspan class="TextParagraph" font-family="Liberation Sans, sans-serif" font-size="352px" font-weight="400"><tspan class="TextPosition" x="14454" y="4628"><tspan fill="rgb(0,0,0)" stroke="none">2019-07</tspan></tspan></tspan></text>
 <text class="TextShape"><tspan class="TextParagraph" font-family="Liberation Sans, sans-serif" font-size="352px" font-weight="400"><tspan class="TextPosition" x="14454" y="5125"><tspan fill="rgb(0,0,0)" stroke="none">2020-08</tspan></tspan></tspan></text>
 <text class="TextShape"><tspan class="TextParagraph" font-family="Liberation Sans, sans-serif" font-size="352px" font-weight="400"><tspan class="TextPosition" x="14454" y="5622"><tspan fill="rgb(0,0,0)" stroke="none">2020-09</tspan></tspan></tspan></text>
</svg>